<svg width="1440" height="640" viewBox="0 0 1440 640" fill="none" xmlns="http://www.w3.org/2000/svg">
  <rect width="1440" height="640" fill="#0B0A0F"/>
  <circle cx="240" cy="160" r="220" fill="url(#paint0_radial)"/>
  <circle cx="1200" cy="120" r="260" fill="url(#paint1_radial)"/>
  <circle cx="960" cy="520" r="300" fill="url(#paint2_radial)"/>
  <path d="M0 420C180 360 360 330 540 340C720 350 900 400 1080 390C1260 380 1380 330 1440 300V640H0V420Z" fill="url(#paint3_linear)"/>
  <path d="M0 360C220 300 440 290 660 320C880 350 1100 420 1320 400C1385 395 1425 380 1440 370V640H0V360Z" fill="url(#paint4_linear)" opacity="0.7"/>
  <defs>
    <radialGradient id="paint0_radial" cx="0" cy="0" r="1" gradientUnits="userSpaceOnUse" gradientTransform="translate(240 160) rotate(90) scale(220)">
      <stop stop-color="#38BDF8" stop-opacity="0.55"/>
      <stop offset="1" stop-color="#38BDF8" stop-opacity="0"/>
    </radialGradient>
    <radialGradient id="paint1_radial" cx="0" cy="0" r="1" gradientUnits="userSpaceOnUse" gradientTransform="translate(1200 120) rotate(90) scale(260)">
      <stop stop-color="#EC4899" stop-opacity="0.45"/>
      <stop offset="1" stop-color="#EC4899" stop-opacity="0"/>
    </radialGradient>
    <radialGradient id="paint2_radial" cx="0" cy="0" r="1" gradientUnits="userSpaceOnUse" gradientTransform="translate(960 520) rotate(90) scale(300)">
      <stop stop-color="#7DD3FC" stop-opacity="0.35"/>
      <stop offset="1" stop-color="#7DD3FC" stop-opacity="0"/>
    </radialGradient>
    <linearGradient id="paint3_linear" x1="0" y1="320" x2="1440" y2="640" gradientUnits="userSpaceOnUse">
      <stop stop-color="#0B0A0F" stop-opacity="0"/>
      <stop offset="1" stop-color="#0B0A0F"/>
    </linearGradient>
    <linearGradient id="paint4_linear" x1="0" y1="320" x2="1440" y2="640" gradientUnits="userSpaceOnUse">
      <stop stop-color="#38BDF8" stop-opacity="0.12"/>
      <stop offset="1" stop-color="#EC4899" stop-opacity="0.08"/>
    </linearGradient>
  </defs>
</svg>
